# xmcd CD database file
#
# Track frame offsets:
#	150
#	20226
#	44011
#	79175
#	107224
#	127910
#	148128
#	179875
#	198273
#	238371
#	261151
#
# Disc length: 3844 seconds
#
# Revision: 0
# Processed by: cddbd v1.5.2PL0 Copyright (c) Steve Scherf et al.
# Submitted via: CDex 1.70beta2
#
DISCID=ad0f020b
DTITLE=Various Artist - Infinity
DYEAR=2002
DGENRE=New Age
TTITLE0=Affections I
TTITLE1=Affections II
TTITLE2=Godliness I
TTITLE3=Godliness II
TTITLE4=Dedication I
TTITLE5=Dedication II
TTITLE6=Devoutness I
TTITLE7=Devoutness II
TTITLE8=Inner Peace
TTITLE9=Calmness
TTITLE10=Infinity
EXTD=YEAR: 2002
EXTT0=
EXTT1=
EXTT2=
EXTT3=
EXTT4=
EXTT5=
EXTT6=
EXTT7=
EXTT8=
EXTT9=
EXTT10=
PLAYORDER=
